<svg xmlns="http://www.w3.org/2000/svg" xmlns:xlink="http://www.w3.org/1999/xlink" width="436.46484375" height="149.70703125"><path fill="#1a1a1a" stroke="none" d="M12.42 103.89L12.42 103.89Q6.21 103.89 3.11 101.40Q0 98.91 0 95.33L0 95.33Q0 92.70 1.85 91.61Q3.69 90.53 5.51 90.53L5.51 90.53Q6.50 90.53 7.47 91.11Q8.44 91.70 8.44 93.16L8.44 93.16Q8.44 94.28 7.47 95.16Q6.50 96.04 5.16 96.04L5.16 96.04Q4.39 96.04 3.66 95.95Q2.93 95.86 2.34 95.45L2.34 95.45L2.34 95.86Q2.34 98.67 4.78 100.49Q7.21 102.30 12.89 102.30L12.89 102.30Q16.82 102.30 20.92 100.61Q25.02 98.91 29.47 95.86L29.47 95.86Q31.64 94.28 33.78 92.58Q35.92 90.88 38.20 89.00L38.20 89.00Q29.71 85.84 24.87 80.19Q20.04 74.53 19.75 68.32L19.75 68.32Q19.57 64.22 21.50 60.67Q23.44 57.13 27.36 54.90Q31.29 52.68 36.97 52.68L36.97 52.68Q44.88 52.68 50.92 57.33Q56.95 61.99 60.18 68.85L60.18 68.85L61.76 67.27Q72.60 56.43 80.57 49.10Q88.54 41.78 94.28 37.12Q100.02 32.46 104.21 29.71Q108.40 26.95 111.62 25.25L111.62 25.25Q115.96 22.97 118.77 22.15Q121.58 21.33 123.05 21.33L123.05 21.33Q124.10 21.33 124.10 21.86L124.10 21.86Q124.10 22.09 122.93 22.56L122.93 22.56Q122.05 22.85 120.41 24.55Q118.77 26.25 115.61 30.32Q112.44 34.39 106.96 41.69Q101.48 48.98 93.02 60.32Q84.55 71.66 72.19 87.95L72.19 87.95Q82.85 84.79 90.88 77.93Q98.91 71.07 102.30 62.05L102.30 62.05Q103.01 60.29 103.24 60.29L103.24 60.29Q103.42 60.29 103.80 60.79Q104.18 61.29 104.18 61.99L104.18 61.99Q103.83 67.03 101.31 70.87Q98.79 74.71 95.27 78.16L95.27 78.16Q90.59 82.73 84.08 85.81Q77.58 88.89 70.31 90.41L70.31 90.41L60.29 103.65Q58.48 103.54 56.57 103.42Q54.67 103.30 53.50 103.30L53.50 103.30Q52.50 103.30 51.71 103.42Q50.92 103.54 50.10 103.65L50.10 103.65Q52.32 100.84 54.49 98.17Q56.66 95.51 58.77 92.93L58.77 92.93Q59.24 92.23 59.41 91.82L59.41 91.82Q58.48 91.88 57.57 91.90Q56.66 91.93 55.72 91.93L55.72 91.93Q51.45 91.93 47.55 91.35Q43.65 90.76 40.25 89.71L40.25 89.71Q36.09 93.22 32.96 95.57Q29.82 97.91 27.54 99.32L27.54 99.32Q23.79 101.66 20.04 102.77Q16.29 103.89 12.42 103.89ZM62.70 88.13L62.70 88.13Q79.22 67.85 90.50 54.67Q101.78 41.48 108.63 34.01Q115.49 26.54 118.71 23.55L118.71 23.55Q116.84 24.32 114.81 25.20Q112.79 26.07 109.98 27.77L109.98 27.77Q105.23 30.64 98.99 35.71Q92.75 40.78 84.35 48.46Q75.94 56.13 64.75 67.03L64.75 67.03L61.00 70.66Q62.17 73.59 62.78 76.70Q63.40 79.80 63.40 82.91L63.40 82.91Q63.40 85.55 62.70 88.13ZM39.61 87.83L39.61 87.83Q43.65 84.38 48.31 80.07Q52.97 75.76 58.83 70.08L58.83 70.08Q55.84 63.11 50.07 58.77Q44.30 54.43 37.09 54.43L37.09 54.43Q33.34 54.43 30.21 56.37Q27.07 58.30 25.22 61.44Q23.38 64.57 23.38 68.20L23.38 68.20Q23.38 74.30 27.42 79.63Q31.46 84.96 39.61 87.83ZM56.07 90.29L56.07 90.29Q58.18 90.29 60.18 90.12L60.18 90.12Q60.88 88.30 61.20 86.43Q61.52 84.55 61.52 83.26L61.52 83.26Q61.52 77.46 59.59 72.01L59.59 72.01Q54.26 77.17 49.78 81.24Q45.29 85.31 41.66 88.48L41.66 88.48Q48.05 90.29 56.07 90.29ZM102.89 104.18L102.89 104.18Q99.02 104.18 97.21 101.92Q95.39 99.67 95.39 96.62L95.39 96.62Q95.39 91.00 99.29 83.85Q103.18 76.70 109.75 66.80L109.75 66.80Q112.85 62.17 117.36 56.31Q121.88 50.45 127.21 44.18Q132.54 37.91 138.22 32.02Q143.91 26.13 149.41 21.39Q154.92 16.64 159.70 13.86Q164.47 11.07 167.93 11.07L167.93 11.07Q172.21 11.07 172.21 14.41L172.21 14.41Q172.21 18.98 168.69 25.11Q165.18 31.23 158.55 37.82Q151.93 44.41 142.68 50.45Q133.42 56.48 121.99 61.00L121.99 61.00Q112.97 72.07 107.87 79.28Q102.77 86.48 100.69 90.82Q98.61 95.16 98.61 97.73L98.61 97.73Q98.61 100.78 99.99 101.75Q101.37 102.71 103.01 102.71L103.01 102.71Q108.69 102.71 114.96 98.96Q121.23 95.21 125.51 87.54L125.51 87.54Q127.21 85.49 128.06 82.65Q128.91 79.80 129.23 77.49Q129.55 75.18 129.55 74.77L129.55 74.77Q129.61 73.07 129.20 72.04Q128.79 71.02 128.85 69.67L128.85 69.67Q128.96 68.26 129.70 66.74Q130.43 65.21 132.48 65.21L132.48 65.21Q134.30 65.21 135.12 66.80Q135.94 68.38 135.88 70.61L135.88 70.61Q135.82 71.37 135.73 72.16Q135.64 72.95 135.41 73.71L135.41 73.71Q134.41 77.70 133.24 80.71Q132.07 83.73 130.37 86.37L130.37 86.37Q130.31 86.78 130.31 87.22Q130.31 87.66 130.31 88.13L130.31 88.13Q130.31 89.06 130.84 90.09Q131.37 91.11 133.59 91.23L133.59 91.23Q135.53 91.23 137.75 89.82Q139.98 88.42 142.06 86.43Q144.14 84.43 145.78 82.59Q147.42 80.74 148.13 79.80L148.13 79.80L149.36 80.80Q148.42 81.86 146.69 83.82Q144.96 85.78 142.76 87.83Q140.57 89.88 138.22 91.29Q135.88 92.70 133.59 92.70L133.59 92.70Q131.07 92.70 129.99 91.58Q128.91 90.47 128.73 88.59L128.73 88.59Q127.21 90.59 124.98 92.75L124.98 92.75Q119.24 99.14 113.17 101.66Q107.11 104.18 102.89 104.18ZM129.08 52.44L123.93 58.65Q131.37 55.78 138.22 51.30Q145.08 46.82 150.91 41.60Q156.74 36.39 161.07 31.20Q165.41 26.02 167.81 21.59Q170.21 17.17 170.21 14.41L170.21 14.41Q170.21 12.30 167.93 12.30L167.93 12.30Q165.18 12.30 161.07 15.73Q156.97 19.16 151.88 24.93Q146.78 30.70 141.01 37.85Q135.23 45 129.08 52.44L129.08 52.44ZM171.97 103.71L171.97 103.71Q169.28 103.71 166.73 102.48Q164.18 101.25 164.18 99.20L164.18 99.20Q164.18 97.62 164.91 95.48Q165.64 93.34 168.28 89.59Q170.92 85.84 176.66 79.39L176.66 79.39Q181.29 74.18 183.05 71.31Q184.80 68.44 184.80 67.03L184.80 67.03Q184.80 66.21 184.25 65.57Q183.69 64.92 182.05 64.92L182.05 64.92Q180.70 64.92 178.39 65.68Q176.07 66.45 173.32 68.26L173.32 68.26Q168.69 71.43 161.84 78.02Q154.98 84.61 146.37 95.33L146.37 95.33L140.98 102.48Q140.04 102.30 139.22 102.25Q138.40 102.19 137.58 102.19L137.58 102.19Q135.47 102.19 134.03 102.39Q132.60 102.60 131.95 102.77L131.95 102.77L196.82 10.14Q197.58 10.20 198.84 10.31Q200.10 10.43 202.44 10.37L202.44 10.37Q202.91 10.37 203.55 10.28Q204.20 10.20 204.96 10.14L204.96 10.14L146.84 90.82L147.13 91.46Q156.09 81.15 162.36 75.26Q168.63 69.38 172.79 66.56L172.79 66.56Q175.72 64.69 178.21 64.07Q180.70 63.46 182.58 63.46L182.58 63.46Q186.39 63.46 188.00 65.30Q189.61 67.15 189.49 69.38L189.49 69.38Q189.38 71.72 187.91 74.97Q186.45 78.22 182.84 83.06Q179.24 87.89 172.68 94.98L172.68 94.98Q169.75 98.14 169.13 99.05Q168.52 99.96 168.52 100.72L168.52 100.72Q168.52 101.31 169.80 101.69Q171.09 102.07 172.68 102.07L172.68 102.07Q176.37 102.07 180.15 100.02Q183.93 97.97 187.44 94.86Q190.96 91.76 193.83 88.54Q196.70 85.31 198.66 82.88Q200.63 80.45 201.21 79.80L201.21 79.80L202.50 80.80Q201.74 81.56 199.72 84.11Q197.70 86.66 194.65 89.97Q191.60 93.28 187.91 96.42Q184.22 99.55 180.15 101.63Q176.07 103.71 171.97 103.71ZM227.93 52.27L227.93 52.27Q226.29 52.27 225.32 51.24Q224.36 50.21 224.36 48.63L224.36 48.63Q224.36 46.58 226.08 44.85Q227.81 43.13 230.21 43.13L230.21 43.13Q231.86 43.13 232.82 44.21Q233.79 45.29 233.79 46.82L233.79 46.82Q233.79 48.98 231.94 50.63Q230.10 52.27 227.93 52.27ZM197.99 103.71L197.99 103.71Q194.41 103.71 192.22 102.39Q190.02 101.07 190.02 98.85L190.02 98.85Q190.02 97.09 190.90 94.78Q191.78 92.46 194.27 88.71Q196.76 84.96 201.53 78.96Q206.31 72.95 214.10 63.87L214.10 63.87Q214.63 63.93 216.62 63.98Q218.61 64.04 219.73 64.04L219.73 64.04Q220.72 64.04 221.22 64.01Q221.72 63.98 222.19 63.93L222.19 63.93Q213.63 74.00 208.21 80.51Q202.79 87.01 199.86 90.88Q196.93 94.75 195.82 96.80Q194.71 98.85 194.71 100.08L194.71 100.08Q194.71 101.60 196.35 101.84Q197.99 102.07 198.98 102.07L198.98 102.07Q202.15 102.07 205.90 99.93Q209.65 97.79 213.37 94.60Q217.09 91.41 220.28 88.13Q223.48 84.84 225.53 82.47Q227.58 80.10 227.93 79.75L227.93 79.75L229.10 80.80Q228.46 81.50 226.29 84.02Q224.12 86.54 220.90 89.85Q217.68 93.16 213.84 96.33Q210 99.49 205.93 101.60Q201.86 103.71 197.99 103.71ZM223.65 103.71L223.65 103.71Q221.19 103.71 219.58 102.33Q217.97 100.96 217.97 98.96L217.97 98.96Q217.97 97.38 218.35 95.89Q218.73 94.39 220.05 92.02Q221.37 89.65 224.06 85.61Q226.76 81.56 231.39 74.88L231.39 74.88L276.68 10.14Q277.50 10.20 278.76 10.31Q280.02 10.43 282.36 10.37L282.36 10.37Q282.83 10.37 283.45 10.28Q284.06 10.20 284.82 10.14L284.82 10.14L236.66 76.99Q231.39 84.38 228.40 88.68Q225.41 92.99 224.00 95.24Q222.60 97.50 222.25 98.47Q221.89 99.43 221.89 100.14L221.89 100.14Q221.89 102.07 224.65 102.07L224.65 102.07Q228.11 102.07 231.94 100.02Q235.78 97.97 239.53 94.89Q243.28 91.82 246.45 88.59Q249.61 85.37 251.81 82.91Q254.00 80.45 254.71 79.80L254.71 79.80L255.88 80.80Q255.12 81.56 252.83 84.08Q250.55 86.60 247.21 89.91Q243.87 93.22 239.91 96.39Q235.96 99.55 231.77 101.63Q227.58 103.71 223.65 103.71ZM254.06 103.71L254.06 103.71Q250.31 103.71 248.58 101.66Q246.86 99.61 246.86 96.04L246.86 96.04Q246.86 92.11 248.53 87.66Q250.20 83.20 254.06 78.81L254.06 78.81Q261.97 69.61 268.86 66.53Q275.74 63.46 281.78 63.46L281.78 63.46Q284.82 63.46 286.93 64.75Q289.04 66.04 289.04 68.26L289.04 68.26Q289.04 69.96 288.34 71.72L288.34 71.72Q290.21 69.49 291.53 67.82Q292.85 66.15 294.08 64.63L294.08 64.63Q295.61 65.10 297.60 65.10L297.60 65.10Q298.42 65.10 299.82 65.04Q301.23 64.98 301.99 64.86L301.99 64.86L282.25 88.65Q278.50 93.11 276.86 95.89Q275.21 98.67 275.21 100.20L275.21 100.20Q275.21 102.07 277.03 102.07L277.03 102.07Q280.20 102.07 283.59 100.22Q286.99 98.38 290.27 95.48Q293.55 92.58 296.43 89.44Q299.30 86.31 301.49 83.64Q303.69 80.98 304.86 79.69L304.86 79.69L306.04 80.68Q304.75 82.15 302.40 84.90Q300.06 87.66 297.04 90.88Q294.02 94.10 290.54 97.03Q287.05 99.96 283.39 101.84Q279.73 103.71 276.15 103.71L276.15 103.71Q270.29 103.71 270.29 100.08L270.29 100.08Q270.29 98.73 270.79 97.35Q271.29 95.98 272.81 93.78Q274.34 91.58 277.38 87.89L277.38 87.89L276.80 87.66Q269.65 96.45 263.58 100.08Q257.52 103.71 254.06 103.71ZM254.30 101.95L254.30 101.95Q258.05 101.95 264.20 97.59Q270.35 93.22 278.96 83.03L278.96 83.03Q280.37 81.33 281.57 79.86Q282.77 78.40 283.89 77.11L283.89 77.11Q285.23 75.06 286.32 72.83Q287.40 70.61 287.40 68.79L287.40 68.79Q287.40 66.97 286.11 66.12Q284.82 65.27 283.30 65.27L283.30 65.27Q280.43 65.27 274.01 69.40Q267.60 73.54 259.92 82.62L259.92 82.62Q255.53 87.89 253.59 91.99Q251.66 96.09 251.66 98.91L251.66 98.91Q251.66 101.95 254.30 101.95ZM301.46 104.94L301.46 104.94Q299.65 104.94 296.78 104.47Q293.91 104.00 291.65 102.48Q289.39 100.96 289.39 97.73L289.39 97.73Q289.39 94.80 291.18 92.90Q292.97 91.00 295.14 90.06Q297.30 89.12 298.36 89.12L298.36 89.12Q300.76 89.12 300.76 91.35L300.76 91.35Q300.70 92.29 299.44 93.08Q298.18 93.87 296.66 93.87L296.66 93.87Q295.96 93.87 295.28 93.37Q294.61 92.87 294.20 92.64L294.20 92.64Q293.55 93.28 292.24 94.54Q290.92 95.80 290.92 97.79L290.92 97.79Q290.92 100.02 292.71 101.10Q294.49 102.19 296.72 102.51Q298.95 102.83 300.12 102.83L300.12 102.83Q302.58 102.83 306.27 100.87Q309.96 98.91 313.15 94.28Q316.35 89.65 317.29 81.68L317.29 81.68Q317.58 78.87 317.84 73.89Q318.11 68.91 319.69 64.34L319.69 64.34Q319.75 64.16 319.75 63.81L319.75 63.81Q317.52 66.56 314.94 69.73Q312.36 72.89 309.99 75.82Q307.62 78.75 305.92 80.80L305.92 80.80Q304.75 82.21 304.22 82.62Q303.69 83.03 303.75 83.03L303.75 83.03Q303.69 83.03 303.31 83.06Q302.93 83.09 302.70 82.68L302.70 82.68Q302.58 82.38 303.25 81.56Q303.93 80.74 304.69 79.80L304.69 79.80Q306.04 78.28 308.85 74.94Q311.66 71.60 314.79 67.79Q317.93 63.98 320.21 61.05L320.21 61.05Q320.57 59.30 321.27 57.89Q321.97 56.48 323.26 56.48L323.26 56.48Q325.61 56.48 325.61 58.42L325.61 58.42Q325.55 59.53 322.91 62.58L322.91 62.58Q321.33 64.45 321.21 65.01Q321.09 65.57 321.09 66.45L321.09 66.45Q321.04 68.55 321.53 71.69Q322.03 74.82 322.62 78.25Q323.20 81.68 323.38 84.79L323.38 84.79Q323.55 89.41 322.32 92.81L322.32 92.81Q323.26 92.93 323.91 92.93L323.91 92.93Q325.78 92.93 328.21 91.23Q330.64 89.53 333.05 87.19Q335.45 84.84 337.24 82.73Q339.02 80.63 339.61 79.80L339.61 79.80L340.90 80.80Q339.90 81.86 337.97 84.05Q336.04 86.25 333.57 88.62Q331.11 91.00 328.56 92.67Q326.02 94.34 323.73 94.34L323.73 94.34Q323.20 94.34 322.73 94.31Q322.27 94.28 321.80 94.22L321.80 94.22Q319.04 100.31 313.65 102.63Q308.26 104.94 301.46 104.94ZM363.57 103.71L363.57 103.71Q360.88 103.71 358.33 102.48Q355.78 101.25 355.78 99.20L355.78 99.20Q355.78 97.62 356.51 95.48Q357.25 93.34 359.88 89.59Q362.52 85.84 368.26 79.39L368.26 79.39Q372.89 74.18 374.65 71.31Q376.41 68.44 376.41 67.03L376.41 67.03Q376.41 66.21 375.85 65.57Q375.29 64.92 373.65 64.92L373.65 64.92Q372.30 64.92 369.99 65.68Q367.68 66.45 364.92 68.26L364.92 68.26Q360.29 71.43 353.44 78.02Q346.58 84.61 337.97 95.33L337.97 95.33L332.58 102.48Q331.64 102.30 330.82 102.25Q330 102.19 329.18 102.19L329.18 102.19Q327.07 102.19 325.63 102.39Q324.20 102.60 323.55 102.77L323.55 102.77L388.42 10.14Q389.18 10.20 390.44 10.31Q391.70 10.43 394.04 10.37L394.04 10.37Q394.51 10.37 395.16 10.28Q395.80 10.20 396.56 10.14L396.56 10.14L338.44 90.82L338.73 91.46Q347.70 81.15 353.96 75.26Q360.23 69.38 364.39 66.56L364.39 66.56Q367.32 64.69 369.81 64.07Q372.30 63.46 374.18 63.46L374.18 63.46Q377.99 63.46 379.60 65.30Q381.21 67.15 381.09 69.38L381.09 69.38Q380.98 71.72 379.51 74.97Q378.05 78.22 374.44 83.06Q370.84 87.89 364.28 94.98L364.28 94.98Q361.35 98.14 360.73 99.05Q360.12 99.96 360.12 100.72L360.12 100.72Q360.12 101.31 361.41 101.69Q362.70 102.07 364.28 102.07L364.28 102.07Q367.97 102.07 371.75 100.02Q375.53 97.97 379.04 94.86Q382.56 91.76 385.43 88.54Q388.30 85.31 390.26 82.88Q392.23 80.45 392.81 79.80L392.81 79.80L394.10 80.80Q393.34 81.56 391.32 84.11Q389.30 86.66 386.25 89.97Q383.20 93.28 379.51 96.42Q375.82 99.55 371.75 101.63Q367.68 103.71 363.57 103.71ZM392.34 103.71L392.34 103.71Q388.59 103.71 386.87 101.66Q385.14 99.61 385.14 96.04L385.14 96.04Q385.14 92.11 386.81 87.66Q388.48 83.20 392.34 78.81L392.34 78.81Q400.25 69.61 407.14 66.53Q414.02 63.46 420.06 63.46L420.06 63.46Q423.11 63.46 425.21 64.75Q427.32 66.04 427.32 68.26L427.32 68.26Q427.32 69.96 426.62 71.72L426.62 71.72Q428.50 69.49 429.81 67.82Q431.13 66.15 432.36 64.63L432.36 64.63Q433.89 65.10 435.88 65.10L435.88 65.10Q436.70 65.10 438.11 65.04Q439.51 64.98 440.27 64.86L440.27 64.86L420.53 88.65Q416.78 93.11 415.14 95.89Q413.50 98.67 413.50 100.20L413.50 100.20Q413.50 102.07 415.31 102.07L415.31 102.07Q418.48 102.07 421.88 100.22Q425.27 98.38 428.55 95.48Q431.84 92.58 434.71 89.44Q437.58 86.31 439.78 83.64Q441.97 80.98 443.14 79.69L443.14 79.69L444.32 80.68Q443.03 82.15 440.68 84.90Q438.34 87.66 435.32 90.88Q432.30 94.10 428.82 97.03Q425.33 99.96 421.67 101.84Q418.01 103.71 414.43 103.71L414.43 103.71Q408.57 103.71 408.57 100.08L408.57 100.08Q408.57 98.73 409.07 97.35Q409.57 95.98 411.09 93.78Q412.62 91.58 415.66 87.89L415.66 87.89L415.08 87.66Q407.93 96.45 401.87 100.08Q395.80 103.71 392.34 103.71ZM392.58 101.95L392.58 101.95Q396.33 101.95 402.48 97.59Q408.63 93.22 417.25 83.03L417.25 83.03Q418.65 81.33 419.85 79.86Q421.05 78.40 422.17 77.11L422.17 77.11Q423.52 75.06 424.60 72.83Q425.68 70.61 425.68 68.79L425.68 68.79Q425.68 66.97 424.39 66.12Q423.11 65.27 421.58 65.27L421.58 65.27Q418.71 65.27 412.29 69.40Q405.88 73.54 398.20 82.62L398.20 82.62Q393.81 87.89 391.88 91.99Q389.94 96.09 389.94 98.91L389.94 98.91Q389.94 101.95 392.58 101.95Z"/></svg>